<?xml version="1.0" encoding="UTF-8"?>
<svg id="Layer_2" data-name="Layer 2" xmlns="http://www.w3.org/2000/svg" viewBox="0 0 835.17 160.06">
  <defs>
    <style>
      .cls-1 {
        stroke: #000;
        stroke-miterlimit: 10;
        stroke-width: .25px;
      }

      .cls-2 {
        font-family: 'TT Firs Neue', sans-serif;
        font-size: 151.58px;
        font-weight: 500;
        letter-spacing: -.06em;
      }
    </style>
  </defs>
  <g id="Layer_1-2" data-name="Layer 1">
    <path class="cls-1" d="m141.86,82.72c0,17.15-6.08,32.86-16.21,45.11-.85,1.03-2.3,1.31-3.46.66l-13.97-7.91c-9.85-5.58-15.94-16.02-15.94-27.34V18.94c0-1.89,1.89-3.23,3.66-2.56,26.83,10.09,45.93,35.98,45.93,66.35Z"/>
    <path class="cls-1" d="m117.65,131.23c1.61.91,1.87,3.15.49,4.39-7.39,6.6-16.19,11.67-25.88,14.72-1.5.47-3.02.9-4.57,1.27-5.35,1.29-10.95,1.98-16.7,1.98-31.04,0-57.41-19.95-66.99-47.72-.42-1.21.11-2.56,1.22-3.2l14.99-8.71c9.65-5.61,21.55-5.68,31.27-.18l36.21,20.5,4.57,2.59,25.38,14.37Z"/>
    <path class="cls-1" d="m87.7,16.02v15.08c0,11.19-5.96,21.54-15.63,27.17l-36.48,21.2-4.63,2.69-25.68,14.93c-1.62.94-3.71,0-4.04-1.84-.73-4.06-1.11-8.24-1.11-12.52,0-5.81.7-11.46,2.02-16.87.38-1.55.81-3.08,1.29-4.59C12.53,32.61,39.34,11.86,70.99,11.86c4.97,0,9.82.51,14.5,1.49,1.27.26,2.2,1.37,2.2,2.67Z"/>
    <text class="cls-2" transform="translate(170.51 128.84)"><tspan x="0" y="0">inscribable</tspan></text>
  </g>
</svg>